<svg xmlns="http://www.w3.org/2000/svg" viewBox="0 0 24 24" fill="none" stroke="oklch(0.99 0 0)" stroke-width="2px" stroke-linecap="round" stroke-linejoin="round" class="lucide lucide-megaphone size-5" aria-hidden="true"><path d="M11 6a13 13 0 0 0 8.4-2.8A1 1 0 0 1 21 4v12a1 1 0 0 1-1.6.8A13 13 0 0 0 11 14H5a2 2 0 0 1-2-2V8a2 2 0 0 1 2-2z" stroke="oklch(0.99 0 0)" fill="none" stroke-width="2px"></path><path d="M6 14a12 12 0 0 0 2.4 7.2 2 2 0 0 0 3.2-2.4A8 8 0 0 1 10 14" stroke="oklch(0.99 0 0)" fill="none" stroke-width="2px"></path><path d="M8 6v8" stroke="oklch(0.99 0 0)" fill="none" stroke-width="2px"></path></svg>